<svg width="800" height="800" viewBox="0 0 800 800" fill="none" xmlns="http://www.w3.org/2000/svg">
<path d="M231.5 595C192.167 595 158 587.5 129 572.5C100.333 557.167 78 535.833 62 508.5C46.3333 481.167 38.5 449.167 38.5 412.5C38.5 375.833 46.3333 344 62 317C78 289.667 100.333 268.5 129 253.5C158 238.167 192.167 230.5 231.5 230.5C255.5 230.5 277.5 233.667 297.5 240C317.833 246 334.667 254.667 348 266L316.5 350.5C301.5 340.5 288 333.667 276 330C264 326 250.5 324 235.5 324C208.5 324 187.667 331.667 173 347C158.667 362 151.5 383.833 151.5 412.5C151.5 441.5 158.667 463.667 173 479C187.667 494 208.5 501.5 235.5 501.5C250.5 501.5 264 499.667 276 496C288 492 301.5 485 316.5 475L348 559.5C334.667 570.833 317.833 579.667 297.5 586C277.5 592 255.5 595 231.5 595ZM389.285 589V236.5H497.285V385H498.285L622.785 236.5H747.785L584.285 423V382L756.285 589H627.285L498.285 432H497.285V589H389.285Z" fill="black"/>
</svg>
