<svg width="62" height="37" viewBox="0 0 62 37" fill="none" xmlns="http://www.w3.org/2000/svg">
<path d="M16.6707 36.45C13.2733 36.45 10.322 35.7 7.8171 34.2C5.34094 32.6667 3.41189 30.5333 2.02986 27.8C0.676616 25.0667 0 21.8667 0 18.2C0 14.5333 0.676616 11.35 2.02986 8.65C3.41189 5.9167 5.34094 3.8 7.8171 2.3C10.322 0.7667 13.2733 0 16.6707 0C18.7438 0 20.6441 0.3167 22.3716 0.95C24.1279 1.55 25.582 2.4167 26.7336 3.55L24.0128 12C22.7171 11 21.551 10.3167 20.5145 9.95C19.478 9.55 18.3119 9.35 17.0162 9.35C14.6841 9.35 12.8846 10.1167 11.6177 11.65C10.3796 13.15 9.76058 15.3333 9.76058 18.2C9.76058 21.1 10.3796 23.3167 11.6177 24.85C12.8846 26.35 14.6841 27.1 17.0162 27.1C18.3119 27.1 19.478 26.9167 20.5145 26.55C21.551 26.15 22.7171 25.45 24.0128 24.45L26.7336 32.9C25.582 34.0333 24.1279 34.9167 22.3716 35.55C20.6441 36.15 18.7438 36.45 16.6707 36.45ZM30.2997 35.85V0.6H39.6284V15.45H39.7148L50.4687 0.6H61.2658L47.1432 19.25V15.15L62 35.85H50.8574L39.7148 20.15H39.6284V35.85H30.2997Z" fill="#F5F5F5"/>
</svg>
