<svg width="1331" height="117" viewBox="0 0 1331 117" fill="none" xmlns="http://www.w3.org/2000/svg">
<path d="M47.24 90.44C37.8 90.44 29.6 88.64 22.64 85.04C15.76 81.36 10.4 76.24 6.56 69.68C2.8 63.12 0.92 55.44 0.92 46.64C0.92 37.84 2.8 30.2 6.56 23.72C10.4 17.16 15.76 12.08 22.64 8.48C29.6 4.8 37.8 2.96 47.24 2.96C53 2.96 58.28 3.72 63.08 5.24C67.96 6.68 72 8.76 75.2 11.48L67.64 31.76C64.04 29.36 60.8 27.72 57.92 26.84C55.04 25.88 51.8 25.4 48.2 25.4C41.72 25.4 36.72 27.24 33.2 30.92C29.76 34.52 28.04 39.76 28.04 46.64C28.04 53.6 29.76 58.92 33.2 62.6C36.72 66.2 41.72 68 48.2 68C51.8 68 55.04 67.56 57.92 66.68C60.8 65.72 64.04 64.04 67.64 61.64L75.2 81.92C72 84.64 67.96 86.76 63.08 88.28C58.28 89.72 53 90.44 47.24 90.44ZM83.9084 89V0.679993H108.868V37.64H106.948C109.028 34.04 111.868 31.28 115.468 29.36C119.068 27.36 123.148 26.36 127.708 26.36C134.828 26.36 140.148 28.56 143.668 32.96C147.188 37.28 148.948 43.92 148.948 52.88V89H123.988V53.84C123.988 50.8 123.468 48.64 122.428 47.36C121.388 46 119.868 45.32 117.868 45.32C115.148 45.32 112.948 46.2 111.268 47.96C109.668 49.72 108.868 52.04 108.868 54.92V89H83.9084ZM184.32 90.44C179.12 90.44 174.48 89.16 170.4 86.6C166.4 84.04 163.24 80.36 160.92 75.56C158.68 70.76 157.56 65.04 157.56 58.4C157.56 51.76 158.68 46.04 160.92 41.24C163.24 36.44 166.4 32.76 170.4 30.2C174.48 27.64 179.12 26.36 184.32 26.36C188.8 26.36 192.92 27.4 196.68 29.48C200.52 31.56 203 34.28 204.12 37.64H202.92L204.36 27.8H228.36C228.04 30.68 227.8 33.6 227.64 36.56C227.48 39.44 227.4 42.32 227.4 45.2V89H202.68L202.44 79.88H203.88C202.68 83 200.2 85.56 196.44 87.56C192.76 89.48 188.72 90.44 184.32 90.44ZM192.72 72.08C195.68 72.08 198.08 71.04 199.92 68.96C201.84 66.88 202.8 63.36 202.8 58.4C202.8 53.44 201.84 49.92 199.92 47.84C198.08 45.76 195.68 44.72 192.72 44.72C189.76 44.72 187.32 45.76 185.4 47.84C183.56 49.92 182.64 53.44 182.64 58.4C182.64 63.36 183.56 66.88 185.4 68.96C187.24 71.04 189.68 72.08 192.72 72.08ZM238.948 89V45.2C238.948 42.32 238.868 39.44 238.708 36.56C238.548 33.6 238.308 30.68 237.988 27.8H261.988L264.748 47.84H261.028C261.828 42.96 263.028 38.96 264.628 35.84C266.308 32.64 268.468 30.28 271.108 28.76C273.748 27.16 276.948 26.36 280.708 26.36C282.548 26.36 283.868 26.44 284.668 26.6C285.548 26.76 286.468 27.04 287.428 27.44V49.28C285.268 48.32 283.548 47.72 282.268 47.48C280.988 47.16 279.308 47 277.228 47C273.948 47 271.348 47.52 269.428 48.56C267.508 49.52 266.148 51.16 265.348 53.48C264.548 55.8 264.148 58.96 264.148 62.96V89H238.948ZM292.854 89V0.679993H317.814V89H292.854ZM362.902 90.44C351.382 90.44 342.462 87.56 336.142 81.8C329.822 76.04 326.662 68.2 326.662 58.28C326.662 52.12 327.942 46.64 330.502 41.84C333.142 37.04 336.822 33.28 341.542 30.56C346.342 27.76 351.942 26.36 358.342 26.36C364.742 26.36 370.062 27.76 374.302 30.56C378.542 33.36 381.702 37.2 383.782 42.08C385.862 46.88 386.902 52.4 386.902 58.64V63.44H347.782V52.16H368.302L366.262 53.84C366.262 49.92 365.582 47.08 364.222 45.32C362.862 43.48 360.982 42.56 358.582 42.56C355.782 42.56 353.662 43.68 352.222 45.92C350.862 48.08 350.182 51.6 350.182 56.48V59C350.182 63.64 351.302 67 353.542 69.08C355.862 71.08 359.262 72.08 363.742 72.08C366.782 72.08 369.662 71.8 372.382 71.24C375.102 70.6 377.702 69.6 380.182 68.24L386.422 84.44C383.222 86.36 379.622 87.84 375.622 88.88C371.702 89.92 367.462 90.44 362.902 90.44ZM395.533 116.24L389.653 97.04C393.493 96.4 396.733 95.72 399.373 95C402.013 94.28 404.173 93.24 405.853 91.88C407.533 90.6 408.813 88.88 409.693 86.72L412.693 79.88L412.093 89L385.452 27.8H411.613L425.413 64.4H421.093L435.613 27.8H460.093L432.853 89.24C430.533 94.44 428.053 98.68 425.413 101.96C422.853 105.24 420.053 107.8 417.013 109.64C413.973 111.56 410.693 112.96 407.173 113.84C403.653 114.8 399.773 115.6 395.533 116.24ZM515.923 89L489.283 27.8H515.323L529.243 64.52H524.683L539.443 27.8H563.803L536.683 89H515.923ZM589.438 90.44C584.238 90.44 579.598 89.16 575.518 86.6C571.518 84.04 568.358 80.36 566.038 75.56C563.798 70.76 562.678 65.04 562.678 58.4C562.678 51.76 563.798 46.04 566.038 41.24C568.358 36.44 571.518 32.76 575.518 30.2C579.598 27.64 584.238 26.36 589.438 26.36C593.918 26.36 598.038 27.4 601.798 29.48C605.638 31.56 608.118 34.28 609.238 37.64H608.038L609.478 27.8H633.478C633.158 30.68 632.918 33.6 632.758 36.56C632.598 39.44 632.518 42.32 632.518 45.2V89H607.798L607.558 79.88H608.998C607.798 83 605.318 85.56 601.558 87.56C597.878 89.48 593.838 90.44 589.438 90.44ZM597.838 72.08C600.798 72.08 603.198 71.04 605.038 68.96C606.958 66.88 607.918 63.36 607.918 58.4C607.918 53.44 606.958 49.92 605.038 47.84C603.198 45.76 600.798 44.72 597.838 44.72C594.878 44.72 592.438 45.76 590.518 47.84C588.678 49.92 587.758 53.44 587.758 58.4C587.758 63.36 588.678 66.88 590.518 68.96C592.358 71.04 594.798 72.08 597.838 72.08ZM644.065 89V45.2C644.065 42.32 643.985 39.44 643.825 36.56C643.665 33.6 643.425 30.68 643.105 27.8H667.105L668.425 37.52H667.105C669.185 34 672.025 31.28 675.625 29.36C679.225 27.36 683.265 26.36 687.745 26.36C694.945 26.36 700.305 28.56 703.825 32.96C707.345 37.28 709.105 44 709.105 53.12V89H684.145V54.08C684.145 50.8 683.585 48.52 682.465 47.24C681.425 45.96 679.985 45.32 678.145 45.32C675.425 45.32 673.225 46.24 671.545 48.08C669.865 49.84 669.025 52.2 669.025 55.16V89H644.065ZM780.579 90.44C775.379 90.44 770.739 89.16 766.659 86.6C762.579 84.04 759.339 80.36 756.939 75.56C754.619 70.76 753.459 65.04 753.459 58.4C753.459 51.76 754.619 46.04 756.939 41.24C759.259 36.44 762.459 32.76 766.539 30.2C770.699 27.64 775.379 26.36 780.579 26.36C784.979 26.36 789.019 27.36 792.699 29.36C796.379 31.28 798.859 33.8 800.139 36.92H798.339V0.679993H823.299V89H798.699V79.16H800.379C799.259 82.52 796.819 85.24 793.059 87.32C789.299 89.4 785.139 90.44 780.579 90.44ZM788.859 72.08C791.739 72.08 794.139 71.04 796.059 68.96C797.979 66.88 798.939 63.36 798.939 58.4C798.939 53.44 797.979 49.92 796.059 47.84C794.139 45.76 791.739 44.72 788.859 44.72C785.979 44.72 783.539 45.76 781.539 47.84C779.619 49.92 778.659 53.44 778.659 58.4C778.659 63.36 779.619 66.88 781.539 68.96C783.539 71.04 785.979 72.08 788.859 72.08ZM868.566 90.44C857.046 90.44 848.126 87.56 841.806 81.8C835.486 76.04 832.326 68.2 832.326 58.28C832.326 52.12 833.606 46.64 836.166 41.84C838.806 37.04 842.486 33.28 847.206 30.56C852.006 27.76 857.606 26.36 864.006 26.36C870.406 26.36 875.726 27.76 879.966 30.56C884.206 33.36 887.366 37.2 889.446 42.08C891.526 46.88 892.566 52.4 892.566 58.64V63.44H853.446V52.16H873.966L871.926 53.84C871.926 49.92 871.246 47.08 869.886 45.32C868.526 43.48 866.646 42.56 864.246 42.56C861.446 42.56 859.326 43.68 857.886 45.92C856.526 48.08 855.846 51.6 855.846 56.48V59C855.846 63.64 856.966 67 859.206 69.08C861.526 71.08 864.926 72.08 869.406 72.08C872.446 72.08 875.326 71.8 878.046 71.24C880.766 70.6 883.366 69.6 885.846 68.24L892.086 84.44C888.886 86.36 885.286 87.84 881.286 88.88C877.366 89.92 873.126 90.44 868.566 90.44ZM901.408 89V45.2C901.408 42.32 901.328 39.44 901.168 36.56C901.008 33.6 900.768 30.68 900.448 27.8H924.448L927.208 47.84H923.488C924.288 42.96 925.488 38.96 927.088 35.84C928.768 32.64 930.928 30.28 933.568 28.76C936.208 27.16 939.408 26.36 943.168 26.36C945.008 26.36 946.328 26.44 947.128 26.6C948.008 26.76 948.928 27.04 949.888 27.44V49.28C947.728 48.32 946.008 47.72 944.728 47.48C943.448 47.16 941.768 47 939.688 47C936.408 47 933.808 47.52 931.888 48.56C929.968 49.52 928.608 51.16 927.808 53.48C927.008 55.8 926.608 58.96 926.608 62.96V89H901.408ZM992.257 89V4.39999H1018.18V40.04H1018.42L1048.3 4.39999H1078.3L1039.06 49.16V39.32L1080.34 89H1049.38L1018.42 51.32H1018.18V89H992.257ZM1078.13 89V45.2C1078.13 42.32 1078.05 39.44 1077.89 36.56C1077.73 33.6 1077.49 30.68 1077.17 27.8H1101.17L1103.93 47.84H1100.21C1101.01 42.96 1102.21 38.96 1103.81 35.84C1105.49 32.64 1107.65 30.28 1110.29 28.76C1112.93 27.16 1116.13 26.36 1119.89 26.36C1121.73 26.36 1123.05 26.44 1123.85 26.6C1124.73 26.76 1125.65 27.04 1126.61 27.44V49.28C1124.45 48.32 1122.73 47.72 1121.45 47.48C1120.17 47.16 1118.49 47 1116.41 47C1113.13 47 1110.53 47.52 1108.61 48.56C1106.69 49.52 1105.33 51.16 1104.53 53.48C1103.73 55.8 1103.33 58.96 1103.33 62.96V89H1078.13ZM1163.02 90.44C1155.98 90.44 1149.86 89.16 1144.66 86.6C1139.46 83.96 1135.42 80.24 1132.54 75.44C1129.74 70.64 1128.34 64.96 1128.34 58.4C1128.34 51.76 1129.74 46.08 1132.54 41.36C1135.42 36.56 1139.46 32.88 1144.66 30.32C1149.86 27.68 1155.98 26.36 1163.02 26.36C1170.06 26.36 1176.14 27.68 1181.26 30.32C1186.46 32.88 1190.46 36.56 1193.26 41.36C1196.14 46.08 1197.58 51.76 1197.58 58.4C1197.58 64.96 1196.14 70.64 1193.26 75.44C1190.46 80.24 1186.46 83.96 1181.26 86.6C1176.14 89.16 1170.06 90.44 1163.02 90.44ZM1163.02 72.08C1165.9 72.08 1168.18 71.04 1169.86 68.96C1171.54 66.88 1172.38 63.36 1172.38 58.4C1172.38 53.44 1171.54 49.92 1169.86 47.84C1168.18 45.76 1165.9 44.72 1163.02 44.72C1160.06 44.72 1157.74 45.76 1156.06 47.84C1154.38 49.92 1153.54 53.44 1153.54 58.4C1153.54 63.36 1154.38 66.88 1156.06 68.96C1157.74 71.04 1160.06 72.08 1163.02 72.08ZM1237.4 115.88C1231.08 115.88 1225.56 115.36 1220.84 114.32C1216.2 113.28 1212 111.76 1208.24 109.76L1212.32 92.12C1214.32 93.24 1216.64 94.2 1219.28 95C1221.92 95.88 1224.64 96.52 1227.44 96.92C1230.24 97.4 1232.8 97.64 1235.12 97.64C1240.08 97.64 1243.72 96.56 1246.04 94.4C1248.36 92.32 1249.52 89.32 1249.52 85.4V76.88H1250.6C1249.32 80.08 1246.84 82.64 1243.16 84.56C1239.48 86.48 1235.48 87.44 1231.16 87.44C1225.8 87.44 1221.08 86.2 1217 83.72C1212.92 81.24 1209.72 77.72 1207.4 73.16C1205.16 68.6 1204.04 63.2 1204.04 56.96C1204.04 50.72 1205.16 45.32 1207.4 40.76C1209.72 36.12 1212.92 32.56 1217 30.08C1221.08 27.6 1225.8 26.36 1231.16 26.36C1235.64 26.36 1239.64 27.32 1243.16 29.24C1246.68 31.16 1249.08 33.64 1250.36 36.68H1249.52L1250.84 27.8H1274.84C1274.52 30.68 1274.28 33.6 1274.12 36.56C1273.96 39.44 1273.88 42.32 1273.88 45.2V82.64C1273.88 93.28 1270.76 101.48 1264.52 107.24C1258.28 113 1249.24 115.88 1237.4 115.88ZM1239.32 69.08C1242.36 69.08 1244.76 68.08 1246.52 66.08C1248.28 64 1249.16 60.96 1249.16 56.96C1249.16 52.88 1248.28 49.84 1246.52 47.84C1244.76 45.76 1242.36 44.72 1239.32 44.72C1236.2 44.72 1233.72 45.76 1231.88 47.84C1230.12 49.84 1229.24 52.88 1229.24 56.96C1229.24 60.96 1230.12 64 1231.88 66.08C1233.72 68.08 1236.2 69.08 1239.32 69.08ZM1319.63 90.44C1310.11 90.44 1302.99 88.28 1298.27 83.96C1293.55 79.56 1291.19 72.92 1291.19 64.04V46.04H1279.91V27.8H1291.19V14L1316.15 8.24V27.8H1330.31V46.04H1316.15V63.32C1316.15 66.44 1316.91 68.44 1318.43 69.32C1320.03 70.2 1321.79 70.64 1323.71 70.64C1325.07 70.64 1326.19 70.56 1327.07 70.4C1328.03 70.24 1329.11 69.96 1330.31 69.56V88.52C1328.39 89.32 1326.51 89.84 1324.67 90.08C1322.91 90.32 1321.23 90.44 1319.63 90.44Z" fill="#F5F5F5"/>
</svg>
